<svg width="60" height="60" viewBox="0 0 60 60" fill="none" xmlns="http://www.w3.org/2000/svg">
<path d="M19.286 24.0001H25.7145M18.0002 28.5001L20.308 20.4231C20.9626 18.1318 21.29 16.9861 21.7959 16.6985C22.2326 16.4501 22.7679 16.4501 23.2046 16.6985C23.7105 16.9861 24.0379 18.1318 24.6925 20.4231L27.0002 28.5001M33.0002 22.5001C34.3981 22.5001 35.0969 22.5001 35.6483 22.7285C36.3833 23.033 36.9674 23.617 37.2719 24.3521C37.5002 24.9034 37.5002 25.6023 37.5002 27.0001M22.5002 34.5001C22.5002 35.898 22.5002 36.5968 22.7286 37.1482C23.0331 37.8832 23.6171 38.4673 24.3522 38.7718C24.9035 39.0001 25.6024 39.0001 27.0002 39.0001" stroke="#1F3454" stroke-width="1.75" stroke-linecap="round" stroke-linejoin="round"/>
<path d="M42.1864 30.8572H38.8328C38.6549 30.8572 38.4843 30.9274 38.3585 31.0524C38.2327 31.1775 38.1621 31.347 38.1621 31.5238C38.1621 31.7007 38.2327 31.8702 38.3585 31.9952C38.4843 32.1203 38.6549 32.1905 38.8328 32.1905H39.8389V36.1905H36.5189C36.9625 35.6168 37.2042 34.9141 37.2067 34.1905C37.2067 33.4567 36.9631 32.7435 36.5137 32.1613C36.0643 31.5792 35.4342 31.1607 34.7211 30.9708C34.008 30.7809 33.2518 30.8302 32.5697 31.111C31.8877 31.3917 31.3179 31.8884 30.9488 32.5238C30.9042 32.5997 30.8752 32.6835 30.8633 32.7705C30.8514 32.8575 30.8569 32.946 30.8796 33.0309C30.9022 33.1158 30.9415 33.1954 30.9952 33.2651C31.0488 33.3349 31.1159 33.3934 31.1924 33.4373C31.2689 33.4812 31.3533 33.5097 31.441 33.521C31.5286 33.5324 31.6176 33.5264 31.7028 33.5035C31.7881 33.4806 31.868 33.4411 31.9379 33.3874C32.0078 33.3337 32.0663 33.2668 32.1101 33.1905C32.2867 32.8864 32.5407 32.6339 32.8466 32.4583C33.1525 32.2827 33.4995 32.1903 33.8527 32.1902C34.206 32.1902 34.553 32.2826 34.8589 32.4581C35.1649 32.6336 35.4189 32.8861 35.5956 33.1901C35.7722 33.4942 35.8652 33.8391 35.8653 34.1902C35.8653 34.5413 35.7724 34.8862 35.5958 35.1903C35.4192 35.4944 35.1652 35.7469 34.8593 35.9225C34.5534 36.098 34.2063 36.1905 33.8531 36.1905C33.6752 36.1905 33.5046 36.2607 33.3788 36.3858C33.253 36.5108 33.1824 36.6804 33.1824 36.8572C33.1824 37.034 33.253 37.2036 33.3788 37.3286C33.5046 37.4536 33.6752 37.5238 33.8531 37.5238C34.2063 37.5239 34.5533 37.6164 34.8591 37.792C35.1649 37.9675 35.4189 38.22 35.5955 38.5241C35.772 38.8281 35.8649 39.173 35.8649 39.5241C35.8648 39.8751 35.7718 40.22 35.5952 40.524C35.4186 40.828 35.1646 41.0805 34.8587 41.256C34.5528 41.4315 34.2058 41.5239 33.8526 41.5238C33.4994 41.5238 33.1524 41.4314 32.8466 41.2559C32.5407 41.0803 32.2867 40.8279 32.1101 40.5238C32.0209 40.3713 31.8745 40.2602 31.7029 40.2148C31.5314 40.1695 31.3488 40.1935 31.1951 40.2818C31.0414 40.37 30.9291 40.5152 30.883 40.6855C30.8368 40.8559 30.8605 41.0375 30.9488 41.1905C31.3179 41.826 31.8877 42.3226 32.5697 42.6034C33.2518 42.8842 34.008 42.9335 34.7211 42.7436C35.4342 42.5536 36.0643 42.1352 36.5137 41.553C36.9631 40.9709 37.2067 40.2576 37.2067 39.5238C37.2042 38.8003 36.9625 38.0975 36.5189 37.5238H39.8389V42.1905C39.8389 42.3673 39.9096 42.5369 40.0354 42.6619C40.1611 42.7869 40.3317 42.8572 40.5096 42.8572C40.6875 42.8572 40.8581 42.7869 40.9839 42.6619C41.1097 42.5369 41.1804 42.3673 41.1804 42.1905V32.1905H42.1864C42.3643 32.1905 42.5349 32.1203 42.6607 31.9952C42.7865 31.8702 42.8572 31.7007 42.8572 31.5238C42.8572 31.347 42.7865 31.1775 42.6607 31.0524C42.5349 30.9274 42.3643 30.8572 42.1864 30.8572Z" fill="#1F3454" stroke="#1F3454" stroke-width="0.5"/>
</svg>
