<svg width="277" height="243" viewBox="0 0 277 243" fill="none" xmlns="http://www.w3.org/2000/svg">
<rect x="34.0322" y="164.841" width="200.415" height="37.6284" rx="18.8142" transform="rotate(-29.5635 34.0322 164.841)" fill="#F42938" fill-opacity="0.15"/>
<rect x="3.03809" y="113.56" width="200.834" height="37.6284" rx="18.8142" transform="rotate(-29.5635 3.03809 113.56)" fill="#F42938" fill-opacity="0.15"/>
<rect x="78.8066" y="204.312" width="175.157" height="37.6284" rx="18.8142" transform="rotate(-29.5635 78.8066 204.312)" fill="#F42938" fill-opacity="0.15"/>
<rect x="214.264" y="64.4866" width="50.1712" height="37.6284" rx="18.8142" transform="rotate(-29.5635 214.264 64.4866)" fill="#F42938" fill-opacity="0.15"/>
<circle cx="47.445" cy="224.516" r="5.01694" stroke="#F42938" stroke-opacity="0.5" stroke-width="2.50856"/>
<circle cx="194.822" cy="235.178" r="1.88133" stroke="#F42938" stroke-opacity="0.5" stroke-width="2.50856"/>
<circle cx="252.52" cy="153.649" r="3.13557" stroke="#F42938" stroke-opacity="0.5" stroke-width="2.50856"/>
<circle cx="14.2063" cy="79.6469" r="3.13557" stroke="#F42938" stroke-opacity="0.5" stroke-width="2.50856"/>
<circle cx="125.21" cy="13.7972" r="6.27118" stroke="#F42938" stroke-opacity="0.5" stroke-width="2.50856"/>
<ellipse cx="138.501" cy="123.547" rx="8.77995" ry="18.187" fill="white"/>
<ellipse cx="138.501" cy="123.547" rx="8.77995" ry="18.187" fill="white"/>
<ellipse cx="138.5" cy="151.768" rx="8.7797" ry="10.0339" fill="white"/>
<ellipse cx="138.5" cy="151.768" rx="8.7797" ry="10.0339" fill="white"/>
<mask id="mask0_11_828" style="mask-type:alpha" maskUnits="userSpaceOnUse" x="63" y="45" width="151" height="151">
<rect x="63.2441" y="45.1541" width="150.513" height="150.513" rx="6.27139" fill="#D9D9D9"/>
</mask>
<g mask="url(#mask0_11_828)">
<path d="M80.395 176.854C75.5639 176.854 72.547 171.621 74.9676 167.44L133.075 67.0722C135.491 62.8999 141.515 62.8999 143.93 67.0722L202.038 167.44C204.459 171.621 201.442 176.854 196.611 176.854L80.395 176.854ZM138.503 158.04C140.28 158.04 141.769 157.439 142.971 156.237C144.173 155.035 144.774 153.545 144.774 151.768C144.774 149.992 144.173 148.502 142.971 147.3C141.769 146.098 140.28 145.497 138.503 145.497C136.726 145.497 135.237 146.098 134.035 147.3C132.833 148.502 132.232 149.992 132.232 151.768C132.232 153.545 132.833 155.035 134.035 156.237C135.237 157.439 136.726 158.04 138.503 158.04ZM132.232 132.954C132.232 136.418 135.039 139.226 138.503 139.226C141.966 139.226 144.774 136.418 144.774 132.954L144.774 114.14C144.774 110.676 141.966 107.869 138.503 107.869C135.039 107.869 132.232 110.676 132.232 114.14L132.232 132.954Z" fill="#E94D58"/>
</g>
</svg>
